Raleway-SemiBold-OTF.ufo
<glyph name="dollar" format="1">
  <advance width="628"/>
  <unicode hex="0024"/>
  <outline>
    <contour>
      <point x="560" y="635" type="line"/>
      <point x="504" y="676"/>
      <point x="429" y="709"/>
      <point x="343" y="714" type="curve"/>
      <point x="343" y="815" type="line"/>
      <point x="291" y="815" type="line"/>
      <point x="291" y="714" type="line"/>
      <point x="159" y="704"/>
      <point x="62" y="629"/>
      <point x="62" y="499" type="curve" smooth="yes"/>
      <point x="62" y="388"/>
      <point x="133" y="346"/>
      <point x="273" y="309" type="curve"/>
      <point x="281" y="306"/>
      <point x="290" y="304"/>
      <point x="298" y="302" type="curve"/>
      <point x="298" y="95" type="line"/>
      <point x="202" y="105"/>
      <point x="116" y="153"/>
      <point x="86" y="185" type="curve"/>
      <point x="35" y="89" type="line"/>
      <point x="107" y="34"/>
      <point x="196" y="1"/>
      <point x="291" y="-5" type="curve"/>
      <point x="291" y="-112" type="line"/>
      <point x="343" y="-112" type="line"/>
      <point x="343" y="-7" type="line"/>
      <point x="479" y="-3"/>
      <point x="588" y="57"/>
      <point x="588" y="197" type="curve" smooth="yes"/>
      <point x="588" y="326"/>
      <point x="498" y="368"/>
      <point x="354" y="403" type="curve" smooth="yes"/>
      <point x="335" y="407" type="line"/>
      <point x="335" y="614" type="line"/>
      <point x="413" y="609"/>
      <point x="485" y="570"/>
      <point x="509" y="543" type="curve"/>
    </contour>
    <contour>
      <point x="468" y="185" type="curve" smooth="yes"/>
      <point x="468" y="127"/>
      <point x="420" y="95"/>
      <point x="335" y="94" type="curve"/>
      <point x="335" y="292" type="line"/>
      <point x="419" y="268"/>
      <point x="468" y="244"/>
    </contour>
    <contour>
      <point x="179" y="517" type="curve" smooth="yes"/>
      <point x="179" y="574"/>
      <point x="217" y="610"/>
      <point x="298" y="614" type="curve"/>
      <point x="298" y="417" type="line"/>
      <point x="218" y="439"/>
      <point x="179" y="461"/>
    </contour>
  </outline>
</glyph>
<glyph name="B" format="1">
  <advance width="675"/>
  <unicode hex="0042"/>
  <outline>
    <contour>
      <point x="638" y="183" type="curve" smooth="yes"/>
      <point x="638" y="273"/>
      <point x="587" y="340"/>
      <point x="506" y="364" type="curve"/>
      <point x="571" y="393"/>
      <point x="608" y="460"/>
      <point x="608" y="529" type="curve" smooth="yes"/>
      <point x="608" y="618"/>
      <point x="546" y="710"/>
      <point x="446" y="710" type="curve" smooth="yes"/>
      <point x="80" y="710" type="line"/>
      <point x="80" y="0" type="line"/>
      <point x="419" y="0" type="line" smooth="yes"/>
      <point x="539" y="0"/>
      <point x="638" y="69"/>
    </contour>
    <contour>
      <point x="523" y="204" type="curve" smooth="yes"/>
      <point x="523" y="146"/>
      <point x="478" y="97"/>
      <point x="419" y="97" type="curve" smooth="yes"/>
      <point x="192" y="97" type="line"/>
      <point x="192" y="314" type="line"/>
      <point x="426" y="314" type="line" smooth="yes"/>
      <point x="482" y="314"/>
      <point x="523" y="262"/>
    </contour>
    <contour>
      <point x="404" y="613" type="line"/>
      <point x="457" y="613"/>
      <point x="496" y="569"/>
      <point x="496" y="508" type="curve" smooth="yes"/>
      <point x="496" y="448"/>
      <point x="453" y="404"/>
      <point x="398" y="404" type="curve" smooth="yes"/>
      <point x="192" y="404" type="line"/>
      <point x="192" y="613" type="line"/>
    </contour>
  </outline>
</glyph>
<glyph name="b" format="1">
  <advance width="628"/>
  <unicode hex="0062"/>
  <outline>
    <contour>
      <point x="348" y="-10" type="curve" smooth="yes"/>
      <point x="488" y="-10"/>
      <point x="595" y="110"/>
      <point x="595" y="259" type="curve" smooth="yes"/>
      <point x="595" y="403"/>
      <point x="503" y="532"/>
      <point x="363" y="532" type="curve" smooth="yes"/>
      <point x="280" y="532"/>
      <point x="217" y="490"/>
      <point x="176" y="424" type="curve"/>
      <point x="176" y="730" type="line"/>
      <point x="66" y="730" type="line"/>
      <point x="66" y="0" type="line"/>
      <point x="163" y="0" type="line"/>
      <point x="163" y="95" type="line"/>
      <point x="200" y="31"/>
      <point x="268" y="-10"/>
    </contour>
    <contour>
      <point x="319" y="84" type="curve" smooth="yes"/>
      <point x="262" y="84"/>
      <point x="192" y="127"/>
      <point x="176" y="187" type="curve"/>
      <point x="176" y="325" type="line"/>
      <point x="204" y="387"/>
      <point x="260" y="438"/>
      <point x="327" y="438" type="curve" smooth="yes"/>
      <point x="418" y="438"/>
      <point x="482" y="353"/>
      <point x="482" y="259" type="curve" smooth="yes"/>
      <point x="482" y="167"/>
      <point x="415" y="84"/>
    </contour>
  </outline>
</glyph>
<glyph name="v" format="1">
  <advance width="543"/>
  <unicode hex="0076"/>
  <outline>
    <contour>
      <point x="331" y="0" type="line"/>
      <point x="531" y="523" type="line"/>
      <point x="427" y="523" type="line"/>
      <point x="276" y="93" type="line"/>
      <point x="126" y="523" type="line"/>
      <point x="13" y="523" type="line"/>
      <point x="213" y="0" type="line"/>
    </contour>
  </outline>
</glyph>
<glyph name="braceleft" format="1">
  <advance width="293"/>
  <unicode hex="007B"/>
  <outline>
    <contour>
      <point x="245" y="651" type="line"/>
      <point x="245" y="740" type="line"/>
      <point x="113" y="740" type="line" smooth="yes"/>
      <point x="106" y="740"/>
      <point x="90" y="735"/>
      <point x="90" y="710" type="curve" smooth="yes"/>
      <point x="90" y="461" type="line" smooth="yes"/>
      <point x="90" y="437"/>
      <point x="72" y="400"/>
      <point x="44" y="400" type="curve"/>
      <point x="44" y="322" type="line"/>
      <point x="70" y="317"/>
      <point x="90" y="291"/>
      <point x="90" y="259" type="curve" smooth="yes"/>
      <point x="90" y="-1" type="line" smooth="yes"/>
      <point x="90" y="-24"/>
      <point x="104" y="-31"/>
      <point x="113" y="-31" type="curve" smooth="yes"/>
      <point x="245" y="-31" type="line"/>
      <point x="245" y="58" type="line"/>
      <point x="190" y="58" type="line"/>
      <point x="190" y="293" type="line" smooth="yes"/>
      <point x="190" y="315"/>
      <point x="178" y="342"/>
      <point x="158" y="360" type="curve"/>
      <point x="179" y="379"/>
      <point x="190" y="404"/>
      <point x="190" y="427" type="curve" smooth="yes"/>
      <point x="190" y="651" type="line"/>
    </contour>
  </outline>
</glyph>
<glyph name="cent" format="1">
  <advance width="580"/>
  <unicode hex="00A2"/>
  <outline>
    <contour>
      <point x="328" y="-120" type="line"/>
      <point x="328" y="-10" type="line"/>
      <point x="397" y="-10"/>
      <point x="507" y="35"/>
      <point x="543" y="124" type="curve"/>
      <point x="436" y="156" type="line"/>
      <point x="423" y="118"/>
      <point x="369" y="92"/>
      <point x="328" y="87" type="curve"/>
      <point x="328" y="434" type="line"/>
      <point x="370" y="431"/>
      <point x="409" y="409"/>
      <point x="433" y="368" type="curve"/>
      <point x="539" y="402" type="line"/>
      <point x="498" y="482"/>
      <point x="423" y="528"/>
      <point x="328" y="531" type="curve"/>
      <point x="328" y="645" type="line"/>
      <point x="276" y="645" type="line"/>
      <point x="276" y="531" type="line"/>
      <point x="127" y="512"/>
      <point x="41" y="393"/>
      <point x="41" y="258" type="curve" smooth="yes"/>
      <point x="41" y="131"/>
      <point x="138" y="2"/>
      <point x="276" y="-9" type="curve"/>
      <point x="276" y="-120" type="line"/>
    </contour>
    <contour>
      <point x="154" y="258" type="curve" smooth="yes"/>
      <point x="154" y="338"/>
      <point x="199" y="418"/>
      <point x="276" y="430" type="curve"/>
      <point x="276" y="92" type="line"/>
      <point x="204" y="109"/>
      <point x="154" y="180"/>
    </contour>
  </outline>
</glyph>
<glyph name="onequarter" format="1">
  <advance width="893"/>
  <unicode hex="00BC"/>
  <outline>
    <contour>
      <point x="798" y="0" type="line"/>
      <point x="798" y="97" type="line"/>
      <point x="858" y="97" type="line"/>
      <point x="858" y="162" type="line"/>
      <point x="798" y="162" type="line"/>
      <point x="798" y="414" type="line"/>
      <point x="752" y="414" type="line"/>
      <point x="508" y="161" type="line"/>
      <point x="508" y="97" type="line"/>
      <point x="732" y="97" type="line"/>
      <point x="732" y="0" type="line"/>
    </contour>
    <contour>
      <point x="734" y="329" type="line"/>
      <point x="734" y="162" type="line"/>
      <point x="575" y="162" type="line"/>
    </contour>
    <contour>
      <point x="212" y="-6" type="line"/>
      <point x="482" y="342" type="line"/>
      <point x="758" y="671" type="line"/>
      <point x="706" y="716" type="line"/>
      <point x="442" y="373" type="line"/>
      <point x="161" y="40" type="line"/>
    </contour>
    <contour>
      <point x="205" y="379" type="line"/>
      <point x="205" y="731" type="line"/>
      <point x="138" y="731" type="line"/>
      <point x="137" y="728"/>
      <point x="85" y="674"/>
      <point x="43" y="674" type="curve"/>
      <point x="43" y="608" type="line"/>
      <point x="75" y="608"/>
      <point x="124" y="640"/>
      <point x="138" y="658" type="curve"/>
      <point x="138" y="379" type="line"/>
      <point x="59" y="379" type="line"/>
      <point x="59" y="313" type="line"/>
      <point x="278" y="313" type="line"/>
      <point x="278" y="379" type="line"/>
    </contour>
  </outline>
</glyph>
<glyph name="onehalf" format="1">
  <advance width="922"/>
  <unicode hex="00BD"/>
  <outline>
    <contour>
      <point x="882" y="0" type="line"/>
      <point x="882" y="65" type="line"/>
      <point x="657" y="65" type="line"/>
      <point x="657" y="98"/>
      <point x="677" y="136"/>
      <point x="750" y="160" type="curve" smooth="yes"/>
      <point x="802" y="176"/>
      <point x="881" y="205"/>
      <point x="881" y="290" type="curve" smooth="yes"/>
      <point x="881" y="368"/>
      <point x="828" y="418"/>
      <point x="728" y="418" type="curve" smooth="yes"/>
      <point x="632" y="418"/>
      <point x="573" y="372"/>
      <point x="556" y="350" type="curve"/>
      <point x="598" y="301" type="line"/>
      <point x="619" y="324"/>
      <point x="659" y="353"/>
      <point x="718" y="353" type="curve" smooth="yes"/>
      <point x="777" y="353"/>
      <point x="808" y="329"/>
      <point x="808" y="291" type="curve" smooth="yes"/>
      <point x="808" y="235"/>
      <point x="738" y="217"/>
      <point x="678" y="193" type="curve" smooth="yes"/>
      <point x="588" y="156"/>
      <point x="552" y="107"/>
      <point x="552" y="0" type="curve"/>
    </contour>
    <contour>
      <point x="174" y="-6" type="line"/>
      <point x="444" y="342" type="line"/>
      <point x="720" y="671" type="line"/>
      <point x="668" y="716" type="line"/>
      <point x="404" y="373" type="line"/>
      <point x="123" y="40" type="line"/>
    </contour>
    <contour>
      <point x="204" y="379" type="line"/>
      <point x="204" y="731" type="line"/>
      <point x="137" y="731" type="line"/>
      <point x="136" y="728"/>
      <point x="84" y="674"/>
      <point x="42" y="674" type="curve"/>
      <point x="42" y="608" type="line"/>
      <point x="74" y="608"/>
      <point x="123" y="640"/>
      <point x="137" y="658" type="curve"/>
      <point x="137" y="379" type="line"/>
      <point x="58" y="379" type="line"/>
      <point x="58" y="313" type="line"/>
      <point x="277" y="313" type="line"/>
      <point x="277" y="379" type="line"/>
    </contour>
  </outline>
</glyph>
<glyph name="Ccedilla" format="1">
  <advance width="682"/>
  <unicode hex="00C7"/>
  <outline>
    <contour>
      <point x="266" y="-169" type="line"/>
      <point x="292" y="-179"/>
      <point x="327" y="-189"/>
      <point x="369" y="-189" type="curve" smooth="yes"/>
      <point x="448" y="-189"/>
      <point x="488" y="-156"/>
      <point x="488" y="-108" type="curve" smooth="yes"/>
      <point x="488" y="-62"/>
      <point x="453" y="-41"/>
      <point x="406" y="-41" type="curve" smooth="yes"/>
      <point x="396" y="-41"/>
      <point x="382" y="-42"/>
      <point x="372" y="-45" type="curve"/>
      <point x="398" y="-5" type="line"/>
      <point x="503" y="3"/>
      <point x="617" y="61"/>
      <point x="658" y="159" type="curve"/>
      <point x="565" y="212" type="line"/>
      <point x="528" y="129"/>
      <point x="445" y="95"/>
      <point x="376" y="95" type="curve" smooth="yes"/>
      <point x="243" y="95"/>
      <point x="147" y="218"/>
      <point x="147" y="356" type="curve" smooth="yes"/>
      <point x="147" y="480"/>
      <point x="225" y="613"/>
      <point x="373" y="613" type="curve" smooth="yes"/>
      <point x="441" y="613"/>
      <point x="520" y="586"/>
      <point x="559" y="500" type="curve"/>
      <point x="647" y="559" type="line"/>
      <point x="601" y="650"/>
      <point x="505" y="714"/>
      <point x="377" y="714" type="curve" smooth="yes"/>
      <point x="160" y="714"/>
      <point x="33" y="532"/>
      <point x="33" y="360" type="curve" smooth="yes"/>
      <point x="33" y="187"/>
      <point x="161" y="9"/>
      <point x="347" y="-5" type="curve"/>
      <point x="302" y="-90" type="line"/>
      <point x="319" y="-85"/>
      <point x="354" y="-78"/>
      <point x="382" y="-78" type="curve" smooth="yes"/>
      <point x="413" y="-78"/>
      <point x="434" y="-86"/>
      <point x="434" y="-112" type="curve" smooth="yes"/>
      <point x="434" y="-136"/>
      <point x="412" y="-146"/>
      <point x="377" y="-146" type="curve" smooth="yes"/>
      <point x="342" y="-146"/>
      <point x="305" y="-135"/>
      <point x="289" y="-126" type="curve"/>
    </contour>
  </outline>
</glyph>
<glyph name="Igrave" format="1">
  <advance width="272"/>
  <unicode hex="00CC"/>
  <outline>
    <contour>
      <point x="192" y="0" type="line"/>
      <point x="192" y="710" type="line"/>
      <point x="80" y="710" type="line"/>
      <point x="80" y="0" type="line"/>
    </contour>
    <contour>
      <point x="112" y="785" type="line"/>
      <point x="182" y="807" type="line"/>
      <point x="125" y="917" type="line"/>
      <point x="20" y="917" type="line"/>
    </contour>
  </outline>
</glyph>
<glyph name="Ugrave" format="1">
  <advance width="752"/>
  <unicode hex="00D9"/>
  <outline>
    <contour>
      <point x="376" y="96" type="curve" smooth="yes"/>
      <point x="229" y="96"/>
      <point x="182" y="220"/>
      <point x="182" y="350" type="curve" smooth="yes"/>
      <point x="182" y="710" type="line"/>
      <point x="70" y="710" type="line"/>
      <point x="70" y="350" type="line" smooth="yes"/>
      <point x="70" y="166"/>
      <point x="150" y="-5"/>
      <point x="376" y="-5" type="curve" smooth="yes"/>
      <point x="595" y="-5"/>
      <point x="683" y="156"/>
      <point x="683" y="350" type="curve" smooth="yes"/>
      <point x="683" y="710" type="line"/>
      <point x="570" y="710" type="line"/>
      <point x="570" y="350" type="line" smooth="yes"/>
      <point x="570" y="223"/>
      <point x="525" y="96"/>
    </contour>
    <contour>
      <point x="353" y="785" type="line"/>
      <point x="423" y="807" type="line"/>
      <point x="366" y="917" type="line"/>
      <point x="261" y="917" type="line"/>
    </contour>
  </outline>
</glyph>
<glyph name="germandbls" format="1">
  <advance width="555"/>
  <unicode hex="00DF"/>
  <outline>
    <contour>
      <point x="244" y="-6" type="line"/>
      <point x="399" y="-2"/>
      <point x="524" y="64"/>
      <point x="524" y="209" type="curve" smooth="yes"/>
      <point x="524" y="304"/>
      <point x="469" y="380"/>
      <point x="379" y="402" type="curve"/>
      <point x="430" y="418"/>
      <point x="472" y="481"/>
      <point x="472" y="551" type="curve" smooth="yes"/>
      <point x="472" y="650"/>
      <point x="390" y="714"/>
      <point x="280" y="714" type="curve" smooth="yes"/>
      <point x="157" y="714"/>
      <point x="66" y="633"/>
      <point x="66" y="520" type="curve" smooth="yes"/>
      <point x="66" y="0" type="line"/>
      <point x="171" y="0" type="line"/>
      <point x="171" y="501" type="line" smooth="yes"/>
      <point x="171" y="560"/>
      <point x="200" y="620"/>
      <point x="274" y="620" type="curve" smooth="yes"/>
      <point x="319" y="620"/>
      <point x="368" y="596"/>
      <point x="368" y="534" type="curve" smooth="yes"/>
      <point x="368" y="481"/>
      <point x="331" y="445"/>
      <point x="275" y="445" type="curve" smooth="yes"/>
      <point x="256" y="445" type="line"/>
      <point x="256" y="345" type="line"/>
      <point x="276" y="345" type="line" smooth="yes"/>
      <point x="351" y="345"/>
      <point x="409" y="298"/>
      <point x="409" y="220" type="curve" smooth="yes"/>
      <point x="409" y="134"/>
      <point x="340" y="97"/>
      <point x="244" y="95" type="curve"/>
    </contour>
  </outline>
</glyph>
<glyph name="adieresis" format="1">
  <advance width="564"/>
  <unicode hex="00E4"/>
  <outline>
    <contour>
      <point x="205" y="-10" type="curve" smooth="yes"/>
      <point x="283" y="-10"/>
      <point x="355" y="24"/>
      <point x="402" y="85" type="curve"/>
      <point x="405" y="52" type="line" smooth="yes"/>
      <point x="410" y="19"/>
      <point x="434" y="-5"/>
      <point x="476" y="-5" type="curve" smooth="yes"/>
      <point x="491" y="-5"/>
      <point x="505" y="-4"/>
      <point x="526" y="0" type="curve"/>
      <point x="526" y="94" type="line"/>
      <point x="505" y="95"/>
      <point x="497" y="105"/>
      <point x="497" y="130" type="curve" smooth="yes"/>
      <point x="497" y="319" type="line" smooth="yes"/>
      <point x="497" y="455"/>
      <point x="412" y="532"/>
      <point x="269" y="532" type="curve" smooth="yes"/>
      <point x="195" y="532"/>
      <point x="126" y="509"/>
      <point x="59" y="464" type="curve"/>
      <point x="93" y="394" type="line"/>
      <point x="150" y="433"/>
      <point x="204" y="454"/>
      <point x="259" y="454" type="curve" smooth="yes"/>
      <point x="341" y="454"/>
      <point x="387" y="408"/>
      <point x="387" y="331" type="curve" smooth="yes"/>
      <point x="387" y="295" type="line"/>
      <point x="349" y="310"/>
      <point x="298" y="319"/>
      <point x="249" y="319" type="curve" smooth="yes"/>
      <point x="119" y="319"/>
      <point x="28" y="252"/>
      <point x="28" y="154" type="curve" smooth="yes"/>
      <point x="28" y="61"/>
      <point x="104" y="-10"/>
    </contour>
    <contour>
      <point x="235" y="71" type="curve" smooth="yes"/>
      <point x="176" y="71"/>
      <point x="132" y="111"/>
      <point x="132" y="163" type="curve" smooth="yes"/>
      <point x="132" y="218"/>
      <point x="188" y="256"/>
      <point x="266" y="256" type="curve" smooth="yes"/>
      <point x="306" y="256"/>
      <point x="350" y="247"/>
      <point x="387" y="233" type="curve"/>
      <point x="387" y="164" type="line" smooth="yes"/>
      <point x="387" y="152"/>
      <point x="379" y="137"/>
      <point x="366" y="126" type="curve" smooth="yes"/>
      <point x="340" y="92"/>
      <point x="288" y="71"/>
    </contour>
    <contour>
      <point x="227" y="615" type="line"/>
      <point x="227" y="725" type="line"/>
      <point x="135" y="725" type="line"/>
      <point x="135" y="615" type="line"/>
    </contour>
    <contour>
      <point x="404" y="615" type="line"/>
      <point x="404" y="725" type="line"/>
      <point x="312" y="725" type="line"/>
      <point x="312" y="615" type="line"/>
    </contour>
  </outline>
</glyph>
<glyph name="ccedilla" format="1">
  <advance width="559"/>
  <unicode hex="00E7"/>
  <outline>
    <contour>
      <point x="202" y="-169" type="line"/>
      <point x="228" y="-179"/>
      <point x="263" y="-189"/>
      <point x="305" y="-189" type="curve" smooth="yes"/>
      <point x="384" y="-189"/>
      <point x="424" y="-156"/>
      <point x="424" y="-108" type="curve" smooth="yes"/>
      <point x="424" y="-62"/>
      <point x="389" y="-41"/>
      <point x="342" y="-41" type="curve" smooth="yes"/>
      <point x="332" y="-41"/>
      <point x="318" y="-42"/>
      <point x="308" y="-45" type="curve"/>
      <point x="331" y="-9" type="line"/>
      <point x="428" y="0"/>
      <point x="503" y="53"/>
      <point x="534" y="124" type="curve"/>
      <point x="426" y="156" type="line"/>
      <point x="410" y="116"/>
      <point x="356" y="84"/>
      <point x="302" y="84" type="curve" smooth="yes"/>
      <point x="216" y="84"/>
      <point x="145" y="161"/>
      <point x="145" y="262" type="curve" smooth="yes"/>
      <point x="145" y="365"/>
      <point x="213" y="438"/>
      <point x="301" y="438" type="curve" smooth="yes"/>
      <point x="353" y="438"/>
      <point x="398" y="412"/>
      <point x="423" y="368" type="curve"/>
      <point x="530" y="402" type="line"/>
      <point x="491" y="480"/>
      <point x="411" y="532"/>
      <point x="303" y="532" type="curve" smooth="yes"/>
      <point x="138" y="532"/>
      <point x="32" y="409"/>
      <point x="32" y="262" type="curve" smooth="yes"/>
      <point x="32" y="123"/>
      <point x="130" y="2"/>
      <point x="280" y="-9" type="curve"/>
      <point x="238" y="-90" type="line"/>
      <point x="255" y="-85"/>
      <point x="290" y="-78"/>
      <point x="318" y="-78" type="curve" smooth="yes"/>
      <point x="349" y="-78"/>
      <point x="370" y="-86"/>
      <point x="370" y="-112" type="curve" smooth="yes"/>
      <point x="370" y="-136"/>
      <point x="348" y="-146"/>
      <point x="313" y="-146" type="curve" smooth="yes"/>
      <point x="278" y="-146"/>
      <point x="241" y="-135"/>
      <point x="225" y="-126" type="curve"/>
    </contour>
  </outline>
</glyph>
<glyph name="edieresis" format="1">
  <advance width="595"/>
  <unicode hex="00EB"/>
  <outline>
    <contour>
      <point x="258" y="615" type="line"/>
      <point x="258" y="725" type="line"/>
      <point x="166" y="725" type="line"/>
      <point x="166" y="615" type="line"/>
    </contour>
    <contour>
      <point x="435" y="615" type="line"/>
      <point x="435" y="725" type="line"/>
      <point x="343" y="725" type="line"/>
      <point x="343" y="615" type="line"/>
    </contour>
    <contour>
      <point x="303" y="-10" type="curve" smooth="yes"/>
      <point x="413" y="-10"/>
      <point x="502" y="46"/>
      <point x="538" y="124" type="curve"/>
      <point x="444" y="151" type="line"/>
      <point x="424" y="103"/>
      <point x="366" y="71"/>
      <point x="307" y="71" type="curve" smooth="yes"/>
      <point x="226" y="71"/>
      <point x="156" y="133"/>
      <point x="149" y="225" type="curve"/>
      <point x="568" y="225" type="line"/>
      <point x="569" y="234"/>
      <point x="571" y="249"/>
      <point x="571" y="265" type="curve"/>
      <point x="571" y="406"/>
      <point x="468" y="532"/>
      <point x="304" y="532" type="curve" smooth="yes"/>
      <point x="140" y="532"/>
      <point x="32" y="408"/>
      <point x="32" y="260" type="curve" smooth="yes"/>
      <point x="32" y="114"/>
      <point x="140" y="-10"/>
    </contour>
    <contour>
      <point x="146" y="301" type="line"/>
      <point x="153" y="390"/>
      <point x="220" y="451"/>
      <point x="303" y="451" type="curve" smooth="yes"/>
      <point x="387" y="451"/>
      <point x="453" y="390"/>
      <point x="462" y="301" type="curve"/>
    </contour>
  </outline>
</glyph>
<glyph name="ntilde" format="1">
  <advance width="597"/>
  <unicode hex="00F1"/>
  <outline>
    <contour>
      <point x="535" y="319" type="line"/>
      <point x="535" y="434"/>
      <point x="504" y="532"/>
      <point x="379" y="532" type="curve" smooth="yes"/>
      <point x="287" y="532"/>
      <point x="206" y="488"/>
      <point x="166" y="418" type="curve"/>
      <point x="166" y="523" type="line"/>
      <point x="66" y="523" type="line"/>
      <point x="66" y="0" type="line"/>
      <point x="176" y="0" type="line"/>
      <point x="176" y="311" type="line"/>
      <point x="199" y="382"/>
      <point x="269" y="434"/>
      <point x="332" y="434" type="curve" smooth="yes"/>
      <point x="393" y="434"/>
      <point x="425" y="391"/>
      <point x="425" y="293" type="curve" smooth="yes"/>
      <point x="425" y="0" type="line"/>
      <point x="535" y="0" type="line"/>
    </contour>
    <contour>
      <point x="372" y="615" type="curve" smooth="yes"/>
      <point x="461" y="615"/>
      <point x="486" y="713"/>
      <point x="486" y="730" type="curve"/>
      <point x="423" y="730" type="line"/>
      <point x="423" y="726"/>
      <point x="418" y="681"/>
      <point x="369" y="681" type="curve" smooth="yes"/>
      <point x="320" y="681"/>
      <point x="297" y="725"/>
      <point x="238" y="725" type="curve" smooth="yes"/>
      <point x="155" y="725"/>
      <point x="131" y="631"/>
      <point x="131" y="610" type="curve"/>
      <point x="193" y="610" type="line"/>
      <point x="193" y="614"/>
      <point x="197" y="658"/>
      <point x="242" y="658" type="curve" smooth="yes"/>
      <point x="285" y="658"/>
      <point x="311" y="615"/>
    </contour>
  </outline>
</glyph>
<glyph name="ccaron" format="1">
  <advance width="559"/>
  <unicode hex="010D"/>
  <outline>
    <contour>
      <point x="158" y="702" type="line"/>
      <point x="262" y="607" type="line"/>
      <point x="341" y="607" type="line"/>
      <point x="445" y="702" type="line"/>
      <point x="386" y="730" type="line"/>
      <point x="301" y="667" type="line"/>
      <point x="216" y="730" type="line"/>
    </contour>
    <contour>
      <point x="32" y="262" type="curve" smooth="yes"/>
      <point x="32" y="116"/>
      <point x="140" y="-10"/>
      <point x="303" y="-10" type="curve" smooth="yes"/>
      <point x="413" y="-10"/>
      <point x="500" y="46"/>
      <point x="534" y="124" type="curve"/>
      <point x="426" y="156" type="line"/>
      <point x="410" y="116"/>
      <point x="356" y="84"/>
      <point x="302" y="84" type="curve" smooth="yes"/>
      <point x="216" y="84"/>
      <point x="145" y="161"/>
      <point x="145" y="262" type="curve" smooth="yes"/>
      <point x="145" y="365"/>
      <point x="213" y="438"/>
      <point x="301" y="438" type="curve" smooth="yes"/>
      <point x="353" y="438"/>
      <point x="398" y="412"/>
      <point x="423" y="368" type="curve"/>
      <point x="530" y="402" type="line"/>
      <point x="491" y="480"/>
      <point x="411" y="532"/>
      <point x="303" y="532" type="curve" smooth="yes"/>
      <point x="138" y="532"/>
      <point x="32" y="409"/>
    </contour>
  </outline>
</glyph>
<glyph name="Ebreve" format="1">
  <advance width="603"/>
  <unicode hex="0114"/>
  <outline>
    <contour>
      <point x="192" y="99" type="line"/>
      <point x="192" y="316" type="line"/>
      <point x="509" y="316" type="line"/>
      <point x="509" y="409" type="line"/>
      <point x="192" y="409" type="line"/>
      <point x="192" y="611" type="line"/>
      <point x="558" y="611" type="line"/>
      <point x="558" y="710" type="line"/>
      <point x="80" y="710" type="line"/>
      <point x="80" y="0" type="line"/>
      <point x="567" y="0" type="line"/>
      <point x="567" y="99" type="line"/>
    </contour>
    <contour>
      <point x="330" y="845" type="curve" smooth="yes"/>
      <point x="299" y="845"/>
      <point x="272" y="878"/>
      <point x="272" y="916" type="curve"/>
      <point x="211" y="916" type="line"/>
      <point x="211" y="846"/>
      <point x="262" y="794"/>
      <point x="330" y="794" type="curve" smooth="yes"/>
      <point x="398" y="794"/>
      <point x="449" y="846"/>
      <point x="449" y="916" type="curve"/>
      <point x="388" y="916" type="line"/>
      <point x="384" y="875"/>
      <point x="359" y="845"/>
    </contour>
  </outline>
</glyph>
<glyph name="hcircumflex" format="1">
  <advance width="597"/>
  <unicode hex="0125"/>
  <outline>
    <contour>
      <point x="288" y="608" type="line"/>
      <point x="365" y="670" type="line"/>
      <point x="442" y="608" type="line"/>
      <point x="495" y="635" type="line"/>
      <point x="401" y="729" type="line"/>
      <point x="330" y="729" type="line"/>
      <point x="236" y="635" type="line"/>
    </contour>
    <contour>
      <point x="535" y="319" type="line"/>
      <point x="535" y="433"/>
      <point x="500" y="532"/>
      <point x="370" y="532" type="curve" smooth="yes"/>
      <point x="289" y="532"/>
      <point x="216" y="489"/>
      <point x="176" y="418" type="curve"/>
      <point x="176" y="730" type="line"/>
      <point x="66" y="730" type="line"/>
      <point x="66" y="0" type="line"/>
      <point x="176" y="0" type="line"/>
      <point x="176" y="311" type="line"/>
      <point x="198" y="383"/>
      <point x="266" y="434"/>
      <point x="326" y="434" type="curve" smooth="yes"/>
      <point x="389" y="434"/>
      <point x="425" y="388"/>
      <point x="425" y="293" type="curve" smooth="yes"/>
      <point x="425" y="0" type="line"/>
      <point x="535" y="0" type="line"/>
    </contour>
  </outline>
</glyph>
<glyph name="ibreve" format="1">
  <advance width="242"/>
  <unicode hex="012D"/>
  <outline>
    <contour>
      <point x="176" y="0" type="line"/>
      <point x="176" y="523" type="line"/>
      <point x="66" y="523" type="line"/>
      <point x="66" y="0" type="line"/>
    </contour>
    <contour>
      <point x="121" y="659" type="curve" smooth="yes"/>
      <point x="90" y="659"/>
      <point x="63" y="692"/>
      <point x="63" y="730" type="curve"/>
      <point x="2" y="730" type="line"/>
      <point x="2" y="660"/>
      <point x="53" y="608"/>
      <point x="121" y="608" type="curve" smooth="yes"/>
      <point x="189" y="608"/>
      <point x="240" y="660"/>
      <point x="240" y="730" type="curve"/>
      <point x="179" y="730" type="line"/>
      <point x="175" y="689"/>
      <point x="150" y="659"/>
    </contour>
  </outline>
</glyph>
<glyph name="Jcircumflex" format="1">
  <advance width="488"/>
  <unicode hex="0134"/>
  <outline>
    <contour>
      <point x="276" y="793" type="line"/>
      <point x="361" y="856" type="line"/>
      <point x="446" y="793" type="line"/>
      <point x="505" y="821" type="line"/>
      <point x="401" y="916" type="line"/>
      <point x="322" y="916" type="line"/>
      <point x="218" y="821" type="line"/>
    </contour>
    <contour>
      <point x="10" y="33" type="line"/>
      <point x="52" y="4"/>
      <point x="103" y="-11"/>
      <point x="164" y="-11" type="curve" smooth="yes"/>
      <point x="388" y="-11"/>
      <point x="416" y="133"/>
      <point x="416" y="349" type="curve" smooth="yes"/>
      <point x="416" y="710" type="line"/>
      <point x="303" y="710" type="line"/>
      <point x="303" y="349" type="line" smooth="yes"/>
      <point x="303" y="178"/>
      <point x="287" y="90"/>
      <point x="164" y="90" type="curve" smooth="yes"/>
      <point x="107" y="90"/>
      <point x="59" y="109"/>
      <point x="37" y="125" type="curve"/>
    </contour>
  </outline>
</glyph>
<glyph name="lacute" format="1">
  <advance width="301"/>
  <unicode hex="013A"/>
  <outline>
    <contour>
      <point x="232" y="900" type="line"/>
      <point x="127" y="900" type="line"/>
      <point x="70" y="790" type="line"/>
      <point x="142" y="768" type="line"/>
    </contour>
    <contour>
      <point x="67" y="111" type="line"/>
      <point x="67" y="36"/>
      <point x="112" y="-8"/>
      <point x="187" y="-8" type="curve" smooth="yes"/>
      <point x="222" y="-8"/>
      <point x="271" y="2"/>
      <point x="303" y="16" type="curve"/>
      <point x="287" y="102" type="line"/>
      <point x="270" y="95"/>
      <point x="249" y="89"/>
      <point x="234" y="89" type="curve" smooth="yes"/>
      <point x="198" y="89"/>
      <point x="177" y="112"/>
      <point x="177" y="151" type="curve" smooth="yes"/>
      <point x="177" y="730" type="line"/>
      <point x="67" y="730" type="line"/>
    </contour>
  </outline>
</glyph>
<glyph name="Eng" format="1">
  <advance width="756"/>
  <unicode hex="014A"/>
  <outline>
    <contour>
      <point x="566" y="21" type="line"/>
      <point x="566" y="-19" type="line" smooth="yes"/>
      <point x="566" y="-63"/>
      <point x="530" y="-95"/>
      <point x="491" y="-95" type="curve" smooth="yes"/>
      <point x="468" y="-95"/>
      <point x="444" y="-88"/>
      <point x="427" y="-72" type="curve"/>
      <point x="378" y="-146" type="line"/>
      <point x="412" y="-177"/>
      <point x="457" y="-191"/>
      <point x="504" y="-191" type="curve" smooth="yes"/>
      <point x="595" y="-191"/>
      <point x="676" y="-120"/>
      <point x="676" y="-15" type="curve" smooth="yes"/>
      <point x="676" y="709" type="line"/>
      <point x="563" y="709" type="line"/>
      <point x="563" y="204" type="line"/>
      <point x="166" y="710" type="line"/>
      <point x="80" y="710" type="line"/>
      <point x="80" y="0" type="line"/>
      <point x="192" y="0" type="line"/>
      <point x="192" y="498" type="line"/>
    </contour>
  </outline>
</glyph>
<glyph name="ohungarumlaut" format="1">
  <advance width="602"/>
  <unicode hex="0151"/>
  <outline>
    <contour>
      <point x="322" y="730" type="line"/>
      <point x="233" y="730" type="line"/>
      <point x="182" y="620" type="line"/>
      <point x="237" y="598" type="line"/>
    </contour>
    <contour>
      <point x="470" y="730" type="line"/>
      <point x="380" y="730" type="line"/>
      <point x="329" y="620" type="line"/>
      <point x="385" y="598" type="line"/>
    </contour>
    <contour>
      <point x="301" y="-10" type="curve" smooth="yes"/>
      <point x="464" y="-10"/>
      <point x="570" y="116"/>
      <point x="570" y="261" type="curve" smooth="yes"/>
      <point x="570" y="406"/>
      <point x="464" y="532"/>
      <point x="301" y="532" type="curve" smooth="yes"/>
      <point x="139" y="532"/>
      <point x="32" y="406"/>
      <point x="32" y="261" type="curve" smooth="yes"/>
      <point x="32" y="116"/>
      <point x="137" y="-10"/>
    </contour>
    <contour>
      <point x="145" y="260" type="curve" smooth="yes"/>
      <point x="145" y="360"/>
      <point x="215" y="438"/>
      <point x="301" y="438" type="curve" smooth="yes"/>
      <point x="388" y="438"/>
      <point x="457" y="361"/>
      <point x="457" y="261" type="curve" smooth="yes"/>
      <point x="457" y="161"/>
      <point x="388" y="84"/>
      <point x="301" y="84" type="curve" smooth="yes"/>
      <point x="214" y="84"/>
      <point x="145" y="159"/>
    </contour>
  </outline>
</glyph>
<glyph name="utilde" format="1">
  <advance width="609"/>
  <unicode hex="0169"/>
  <outline>
    <contour>
      <point x="227" y="-10" type="curve" smooth="yes"/>
      <point x="316" y="-10"/>
      <point x="394" y="30"/>
      <point x="441" y="106" type="curve"/>
      <point x="443" y="54" type="line" smooth="yes"/>
      <point x="444" y="19"/>
      <point x="476" y="-5"/>
      <point x="516" y="-5" type="curve" smooth="yes"/>
      <point x="529" y="-5"/>
      <point x="542" y="-4"/>
      <point x="565" y="0" type="curve"/>
      <point x="565" y="94" type="line"/>
      <point x="543" y="95"/>
      <point x="535" y="105"/>
      <point x="535" y="130" type="curve" smooth="yes"/>
      <point x="535" y="523" type="line"/>
      <point x="425" y="523" type="line"/>
      <point x="425" y="197" type="line"/>
      <point x="394" y="124"/>
      <point x="333" y="84"/>
      <point x="271" y="84" type="curve" smooth="yes"/>
      <point x="205" y="84"/>
      <point x="171" y="132"/>
      <point x="171" y="225" type="curve" smooth="yes"/>
      <point x="171" y="523" type="line"/>
      <point x="61" y="523" type="line"/>
      <point x="61" y="203" type="line" smooth="yes"/>
      <point x="61" y="63"/>
      <point x="118" y="-10"/>
    </contour>
    <contour>
      <point x="361" y="615" type="curve" smooth="yes"/>
      <point x="450" y="615"/>
      <point x="475" y="713"/>
      <point x="475" y="730" type="curve"/>
      <point x="412" y="730" type="line"/>
      <point x="412" y="726"/>
      <point x="407" y="681"/>
      <point x="358" y="681" type="curve" smooth="yes"/>
      <point x="309" y="681"/>
      <point x="286" y="725"/>
      <point x="227" y="725" type="curve" smooth="yes"/>
      <point x="144" y="725"/>
      <point x="120" y="631"/>
      <point x="120" y="610" type="curve"/>
      <point x="182" y="610" type="line"/>
      <point x="182" y="614"/>
      <point x="186" y="658"/>
      <point x="231" y="658" type="curve" smooth="yes"/>
      <point x="274" y="658"/>
      <point x="300" y="615"/>
    </contour>
  </outline>
</glyph>
<glyph name="umacron" format="1">
  <advance width="609"/>
  <unicode hex="016B"/>
  <outline>
    <contour>
      <point x="227" y="-10" type="curve" smooth="yes"/>
      <point x="316" y="-10"/>
      <point x="394" y="30"/>
      <point x="441" y="106" type="curve"/>
      <point x="443" y="54" type="line" smooth="yes"/>
      <point x="444" y="19"/>
      <point x="476" y="-5"/>
      <point x="516" y="-5" type="curve" smooth="yes"/>
      <point x="529" y="-5"/>
      <point x="542" y="-4"/>
      <point x="565" y="0" type="curve"/>
      <point x="565" y="94" type="line"/>
      <point x="543" y="95"/>
      <point x="535" y="105"/>
      <point x="535" y="130" type="curve" smooth="yes"/>
      <point x="535" y="523" type="line"/>
      <point x="425" y="523" type="line"/>
      <point x="425" y="197" type="line"/>
      <point x="394" y="124"/>
      <point x="333" y="84"/>
      <point x="271" y="84" type="curve" smooth="yes"/>
      <point x="205" y="84"/>
      <point x="171" y="132"/>
      <point x="171" y="225" type="curve" smooth="yes"/>
      <point x="171" y="523" type="line"/>
      <point x="61" y="523" type="line"/>
      <point x="61" y="203" type="line" smooth="yes"/>
      <point x="61" y="63"/>
      <point x="118" y="-10"/>
    </contour>
    <contour>
      <point x="446" y="644" type="line"/>
      <point x="446" y="714" type="line"/>
      <point x="150" y="714" type="line"/>
      <point x="150" y="644" type="line"/>
    </contour>
  </outline>
</glyph>
<glyph name="Uring" format="1">
  <advance width="752"/>
  <unicode hex="016E"/>
  <outline>
    <contour>
      <point x="287" y="843" type="curve" smooth="yes"/>
      <point x="287" y="798"/>
      <point x="323" y="770"/>
      <point x="375" y="770" type="curve" smooth="yes"/>
      <point x="428" y="770"/>
      <point x="464" y="798"/>
      <point x="464" y="843" type="curve" smooth="yes"/>
      <point x="464" y="889"/>
      <point x="428" y="916"/>
      <point x="375" y="916" type="curve" smooth="yes"/>
      <point x="323" y="916"/>
      <point x="287" y="889"/>
    </contour>
    <contour>
      <point x="375" y="880" type="curve" smooth="yes"/>
      <point x="398" y="880"/>
      <point x="416" y="865"/>
      <point x="416" y="843" type="curve" smooth="yes"/>
      <point x="416" y="822"/>
      <point x="397" y="806"/>
      <point x="375" y="806" type="curve" smooth="yes"/>
      <point x="352" y="806"/>
      <point x="335" y="823"/>
      <point x="335" y="843" type="curve" smooth="yes"/>
      <point x="335" y="865"/>
      <point x="353" y="880"/>
    </contour>
    <contour>
      <point x="376" y="96" type="curve" smooth="yes"/>
      <point x="229" y="96"/>
      <point x="182" y="220"/>
      <point x="182" y="350" type="curve" smooth="yes"/>
      <point x="182" y="710" type="line"/>
      <point x="70" y="710" type="line"/>
      <point x="70" y="350" type="line" smooth="yes"/>
      <point x="70" y="166"/>
      <point x="150" y="-5"/>
      <point x="376" y="-5" type="curve" smooth="yes"/>
      <point x="595" y="-5"/>
      <point x="683" y="156"/>
      <point x="683" y="350" type="curve" smooth="yes"/>
      <point x="683" y="710" type="line"/>
      <point x="570" y="710" type="line"/>
      <point x="570" y="350" type="line" smooth="yes"/>
      <point x="570" y="223"/>
      <point x="525" y="96"/>
    </contour>
  </outline>
</glyph>
<glyph name="Zcaron" format="1">
  <advance width="629"/>
  <unicode hex="017D"/>
  <outline>
    <contour>
      <point x="185" y="888" type="line"/>
      <point x="289" y="793" type="line"/>
      <point x="368" y="793" type="line"/>
      <point x="472" y="888" type="line"/>
      <point x="413" y="916" type="line"/>
      <point x="328" y="853" type="line"/>
      <point x="243" y="916" type="line"/>
    </contour>
    <contour>
      <point x="31" y="0" type="line"/>
      <point x="594" y="0" type="line"/>
      <point x="594" y="99" type="line"/>
      <point x="172" y="99" type="line"/>
      <point x="593" y="624" type="line"/>
      <point x="593" y="710" type="line"/>
      <point x="41" y="710" type="line"/>
      <point x="41" y="611" type="line"/>
      <point x="462" y="611" type="line"/>
      <point x="31" y="86" type="line"/>
    </contour>
  </outline>
</glyph>
<glyph name="zcaron" format="1">
  <advance width="493"/>
  <unicode hex="017E"/>
  <outline>
    <contour>
      <point x="108" y="702" type="line"/>
      <point x="212" y="607" type="line"/>
      <point x="291" y="607" type="line"/>
      <point x="395" y="702" type="line"/>
      <point x="336" y="730" type="line"/>
      <point x="251" y="667" type="line"/>
      <point x="166" y="730" type="line"/>
    </contour>
    <contour>
      <point x="28" y="0" type="line"/>
      <point x="461" y="0" type="line"/>
      <point x="461" y="78" type="line"/>
      <point x="146" y="78" type="line"/>
      <point x="458" y="454" type="line"/>
      <point x="458" y="523" type="line"/>
      <point x="39" y="523" type="line"/>
      <point x="39" y="445" type="line"/>
      <point x="342" y="445" type="line"/>
      <point x="28" y="69" type="line"/>
    </contour>
  </outline>
</glyph>
<glyph name="Schwa" format="1">
  <advance width="741"/>
  <unicode hex="018F"/>
  <outline>
    <contour>
      <point x="366" y="-5" type="curve" smooth="yes"/>
      <point x="563" y="-5"/>
      <point x="705" y="160"/>
      <point x="705" y="356" type="curve" smooth="yes"/>
      <point x="705" y="548"/>
      <point x="562" y="715"/>
      <point x="369" y="715" type="curve" smooth="yes"/>
      <point x="238" y="715"/>
      <point x="119" y="642"/>
      <point x="67" y="534" type="curve"/>
      <point x="177" y="491" type="line"/>
      <point x="200" y="563"/>
      <point x="279" y="613"/>
      <point x="363" y="613" type="curve" smooth="yes"/>
      <point x="474" y="613"/>
      <point x="568" y="524"/>
      <point x="581" y="396" type="curve"/>
      <point x="27" y="396" type="line"/>
      <point x="25" y="386"/>
      <point x="24" y="365"/>
      <point x="24" y="347" type="curve" smooth="yes"/>
      <point x="24" y="162"/>
      <point x="169" y="-5"/>
    </contour>
    <contour>
      <point x="369" y="95" type="curve" smooth="yes"/>
      <point x="251" y="95"/>
      <point x="155" y="185"/>
      <point x="146" y="304" type="curve"/>
      <point x="582" y="304" type="line"/>
      <point x="572" y="183"/>
      <point x="483" y="95"/>
    </contour>
  </outline>
</glyph>
<glyph name="aringacute" format="1">
  <advance width="564"/>
  <unicode hex="01FB"/>
  <outline>
    <contour>
      <point x="205" y="-10" type="curve" smooth="yes"/>
      <point x="283" y="-10"/>
      <point x="355" y="24"/>
      <point x="402" y="85" type="curve"/>
      <point x="405" y="52" type="line" smooth="yes"/>
      <point x="410" y="19"/>
      <point x="434" y="-5"/>
      <point x="476" y="-5" type="curve" smooth="yes"/>
      <point x="491" y="-5"/>
      <point x="505" y="-4"/>
      <point x="526" y="0" type="curve"/>
      <point x="526" y="94" type="line"/>
      <point x="505" y="95"/>
      <point x="497" y="105"/>
      <point x="497" y="130" type="curve" smooth="yes"/>
      <point x="497" y="319" type="line" smooth="yes"/>
      <point x="497" y="455"/>
      <point x="412" y="532"/>
      <point x="269" y="532" type="curve" smooth="yes"/>
      <point x="195" y="532"/>
      <point x="126" y="509"/>
      <point x="59" y="464" type="curve"/>
      <point x="93" y="394" type="line"/>
      <point x="150" y="433"/>
      <point x="204" y="454"/>
      <point x="259" y="454" type="curve" smooth="yes"/>
      <point x="341" y="454"/>
      <point x="387" y="408"/>
      <point x="387" y="331" type="curve" smooth="yes"/>
      <point x="387" y="295" type="line"/>
      <point x="349" y="310"/>
      <point x="298" y="319"/>
      <point x="249" y="319" type="curve" smooth="yes"/>
      <point x="119" y="319"/>
      <point x="28" y="252"/>
      <point x="28" y="154" type="curve" smooth="yes"/>
      <point x="28" y="61"/>
      <point x="104" y="-10"/>
    </contour>
    <contour>
      <point x="235" y="71" type="curve" smooth="yes"/>
      <point x="176" y="71"/>
      <point x="132" y="111"/>
      <point x="132" y="163" type="curve" smooth="yes"/>
      <point x="132" y="218"/>
      <point x="188" y="256"/>
      <point x="266" y="256" type="curve" smooth="yes"/>
      <point x="306" y="256"/>
      <point x="350" y="247"/>
      <point x="387" y="233" type="curve"/>
      <point x="387" y="164" type="line" smooth="yes"/>
      <point x="387" y="152"/>
      <point x="379" y="137"/>
      <point x="366" y="126" type="curve" smooth="yes"/>
      <point x="340" y="92"/>
      <point x="288" y="71"/>
    </contour>
    <contour>
      <point x="384" y="893" type="line"/>
      <point x="279" y="893" type="line"/>
      <point x="222" y="783" type="line"/>
      <point x="294" y="761" type="line"/>
    </contour>
    <contour>
      <point x="180" y="657" type="curve" smooth="yes"/>
      <point x="180" y="612"/>
      <point x="216" y="584"/>
      <point x="268" y="584" type="curve" smooth="yes"/>
      <point x="321" y="584"/>
      <point x="357" y="612"/>
      <point x="357" y="657" type="curve" smooth="yes"/>
      <point x="357" y="703"/>
      <point x="321" y="730"/>
      <point x="268" y="730" type="curve" smooth="yes"/>
      <point x="216" y="730"/>
      <point x="180" y="703"/>
    </contour>
    <contour>
      <point x="268" y="694" type="curve" smooth="yes"/>
      <point x="291" y="694"/>
      <point x="309" y="679"/>
      <point x="309" y="657" type="curve" smooth="yes"/>
      <point x="309" y="636"/>
      <point x="290" y="620"/>
      <point x="268" y="620" type="curve" smooth="yes"/>
      <point x="245" y="620"/>
      <point x="228" y="637"/>
      <point x="228" y="657" type="curve" smooth="yes"/>
      <point x="228" y="679"/>
      <point x="246" y="694"/>
    </contour>
  </outline>
</glyph>
<glyph name="Idblgrave" format="1">
  <advance width="272"/>
  <unicode hex="0208"/>
  <outline>
    <contour>
      <point x="192" y="0" type="line"/>
      <point x="192" y="710" type="line"/>
      <point x="80" y="710" type="line"/>
      <point x="80" y="0" type="line"/>
    </contour>
    <contour>
      <point x="205" y="785" type="line"/>
      <point x="260" y="807" type="line"/>
      <point x="209" y="917" type="line"/>
      <point x="120" y="917" type="line"/>
    </contour>
    <contour>
      <point x="57" y="785" type="line"/>
      <point x="113" y="807" type="line"/>
      <point x="62" y="917" type="line"/>
      <point x="-28" y="917" type="line"/>
    </contour>
  </outline>
</glyph>
<glyph name="Oinvertedbreve" format="1">
  <advance width="752"/>
  <unicode hex="020E"/>
  <outline>
    <contour>
      <point x="377" y="865" type="curve" smooth="yes"/>
      <point x="406" y="865"/>
      <point x="431" y="835"/>
      <point x="435" y="794" type="curve"/>
      <point x="496" y="794" type="line"/>
      <point x="496" y="864"/>
      <point x="445" y="916"/>
      <point x="377" y="916" type="curve" smooth="yes"/>
      <point x="309" y="916"/>
      <point x="258" y="864"/>
      <point x="258" y="794" type="curve"/>
      <point x="319" y="794" type="line"/>
      <point x="319" y="832"/>
      <point x="346" y="865"/>
    </contour>
    <contour>
      <point x="375" y="-5" type="curve" smooth="yes"/>
      <point x="571" y="-5"/>
      <point x="716" y="165"/>
      <point x="716" y="354" type="curve" smooth="yes"/>
      <point x="716" y="532"/>
      <point x="580" y="715"/>
      <point x="377" y="715" type="curve" smooth="yes"/>
      <point x="181" y="715"/>
      <point x="35" y="544"/>
      <point x="35" y="355" type="curve" smooth="yes"/>
      <point x="35" y="173"/>
      <point x="172" y="-5"/>
    </contour>
    <contour>
      <point x="149" y="355" type="curve" smooth="yes"/>
      <point x="149" y="483"/>
      <point x="233" y="613"/>
      <point x="376" y="613" type="curve" smooth="yes"/>
      <point x="512" y="613"/>
      <point x="601" y="490"/>
      <point x="601" y="355" type="curve" smooth="yes"/>
      <point x="601" y="228"/>
      <point x="519" y="96"/>
      <point x="376" y="96" type="curve" smooth="yes"/>
      <point x="237" y="96"/>
      <point x="149" y="221"/>
    </contour>
  </outline>
</glyph>
<glyph name="rinvertedbreve" format="1">
  <advance width="374"/>
  <unicode hex="0213"/>
  <outline>
    <contour>
      <point x="211" y="679" type="curve" smooth="yes"/>
      <point x="240" y="679"/>
      <point x="265" y="649"/>
      <point x="269" y="608" type="curve"/>
      <point x="330" y="608" type="line"/>
      <point x="330" y="678"/>
      <point x="279" y="730"/>
      <point x="211" y="730" type="curve" smooth="yes"/>
      <point x="143" y="730"/>
      <point x="92" y="678"/>
      <point x="92" y="608" type="curve"/>
      <point x="153" y="608" type="line"/>
      <point x="153" y="646"/>
      <point x="180" y="679"/>
    </contour>
    <contour>
      <point x="360" y="527" type="line"/>
      <point x="353" y="528"/>
      <point x="345" y="528"/>
      <point x="332" y="528" type="curve" smooth="yes"/>
      <point x="266" y="524"/>
      <point x="204" y="478"/>
      <point x="168" y="406" type="curve"/>
      <point x="168" y="523" type="line"/>
      <point x="66" y="523" type="line"/>
      <point x="66" y="0" type="line"/>
      <point x="176" y="0" type="line"/>
      <point x="176" y="320" type="line"/>
      <point x="204" y="387"/>
      <point x="275" y="426"/>
      <point x="360" y="428" type="curve"/>
    </contour>
  </outline>
</glyph>
<glyph name="udblgrave" format="1">
  <advance width="609"/>
  <unicode hex="0215"/>
  <outline>
    <contour>
      <point x="362" y="598" type="line"/>
      <point x="417" y="620" type="line"/>
      <point x="366" y="730" type="line"/>
      <point x="277" y="730" type="line"/>
    </contour>
    <contour>
      <point x="214" y="598" type="line"/>
      <point x="270" y="620" type="line"/>
      <point x="219" y="730" type="line"/>
      <point x="129" y="730" type="line"/>
    </contour>
    <contour>
      <point x="227" y="-10" type="curve" smooth="yes"/>
      <point x="316" y="-10"/>
      <point x="394" y="30"/>
      <point x="441" y="106" type="curve"/>
      <point x="443" y="54" type="line" smooth="yes"/>
      <point x="444" y="19"/>
      <point x="476" y="-5"/>
      <point x="516" y="-5" type="curve" smooth="yes"/>
      <point x="529" y="-5"/>
      <point x="542" y="-4"/>
      <point x="565" y="0" type="curve"/>
      <point x="565" y="94" type="line"/>
      <point x="543" y="95"/>
      <point x="535" y="105"/>
      <point x="535" y="130" type="curve" smooth="yes"/>
      <point x="535" y="523" type="line"/>
      <point x="425" y="523" type="line"/>
      <point x="425" y="197" type="line"/>
      <point x="394" y="124"/>
      <point x="333" y="84"/>
      <point x="271" y="84" type="curve" smooth="yes"/>
      <point x="205" y="84"/>
      <point x="171" y="132"/>
      <point x="171" y="225" type="curve" smooth="yes"/>
      <point x="171" y="523" type="line"/>
      <point x="61" y="523" type="line"/>
      <point x="61" y="203" type="line" smooth="yes"/>
      <point x="61" y="63"/>
      <point x="118" y="-10"/>
    </contour>
  </outline>
</glyph>
<glyph name="schwa" format="1">
  <advance width="595"/>
  <unicode hex="0259"/>
  <outline>
    <contour>
      <point x="294" y="-10" type="curve" smooth="yes"/>
      <point x="458" y="-10"/>
      <point x="563" y="113"/>
      <point x="563" y="261" type="curve" smooth="yes"/>
      <point x="563" y="408"/>
      <point x="455" y="532"/>
      <point x="293" y="532" type="curve" smooth="yes"/>
      <point x="182" y="532"/>
      <point x="92" y="475"/>
      <point x="56" y="398" type="curve"/>
      <point x="151" y="371" type="line"/>
      <point x="171" y="418"/>
      <point x="229" y="450"/>
      <point x="288" y="450" type="curve" smooth="yes"/>
      <point x="369" y="450"/>
      <point x="439" y="390"/>
      <point x="446" y="297" type="curve"/>
      <point x="27" y="297" type="line"/>
      <point x="25" y="288"/>
      <point x="24" y="271"/>
      <point x="24" y="261" type="curve"/>
      <point x="25" y="114"/>
      <point x="130" y="-10"/>
    </contour>
    <contour>
      <point x="296" y="71" type="curve" smooth="yes"/>
      <point x="212" y="71"/>
      <point x="142" y="134"/>
      <point x="135" y="227" type="curve"/>
      <point x="448" y="227" type="line"/>
      <point x="442" y="136"/>
      <point x="379" y="71"/>
    </contour>
  </outline>
</glyph>
<glyph name="hungarumlaut" format="1">
  <advance width="351"/>
  <unicode hex="02DD"/>
  <outline>
    <contour>
      <point x="155" y="522" type="move" name="_top"/>
    </contour>
    <contour>
      <point x="177" y="730" type="line"/>
      <point x="88" y="730" type="line"/>
      <point x="37" y="620" type="line"/>
      <point x="92" y="598" type="line"/>
    </contour>
    <contour>
      <point x="325" y="730" type="line"/>
      <point x="235" y="730" type="line"/>
      <point x="184" y="620" type="line"/>
      <point x="240" y="598" type="line"/>
    </contour>
  </outline>
</glyph>
<glyph name="uni040E" format="1">
  <advance width="629"/>
  <unicode hex="040E"/>
  <outline>
    <contour>
      <point x="180" y="-7" type="curve" smooth="yes"/>
      <point x="265" y="-7"/>
      <point x="312" y="42"/>
      <point x="371" y="170" type="curve" smooth="yes"/>
      <point x="621" y="710" type="line"/>
      <point x="503" y="710" type="line"/>
      <point x="324" y="299" type="line"/>
      <point x="134" y="710" type="line"/>
      <point x="13" y="710" type="line"/>
      <point x="272" y="181" type="line"/>
      <point x="244" y="111"/>
      <point x="214" y="91"/>
      <point x="171" y="91" type="curve" smooth="yes"/>
      <point x="147" y="91"/>
      <point x="116" y="99"/>
      <point x="98" y="107" type="curve"/>
      <point x="89" y="13" type="line"/>
      <point x="113" y="-1"/>
      <point x="154" y="-7"/>
    </contour>
    <contour>
      <point x="323" y="789" type="curve" smooth="yes"/>
      <point x="419" y="789"/>
      <point x="485" y="837"/>
      <point x="487" y="916" type="curve"/>
      <point x="421" y="916" type="line"/>
      <point x="414" y="878"/>
      <point x="375" y="850"/>
      <point x="323" y="850" type="curve" smooth="yes"/>
      <point x="269" y="850"/>
      <point x="225" y="880"/>
      <point x="225" y="916" type="curve"/>
      <point x="158" y="916" type="line"/>
      <point x="160" y="837"/>
      <point x="226" y="789"/>
    </contour>
  </outline>
</glyph>
<glyph name="uni0420" format="1">
  <advance width="625"/>
  <unicode hex="0420"/>
  <outline>
    <contour>
      <point x="194" y="0" type="line"/>
      <point x="194" y="247" type="line"/>
      <point x="386" y="247" type="line" smooth="yes"/>
      <point x="514" y="247"/>
      <point x="600" y="360"/>
      <point x="600" y="479" type="curve" smooth="yes"/>
      <point x="600" y="593"/>
      <point x="508" y="710"/>
      <point x="380" y="710" type="curve" smooth="yes"/>
      <point x="82" y="710" type="line"/>
      <point x="82" y="0" type="line"/>
    </contour>
    <contour>
      <point x="194" y="611" type="line"/>
      <point x="373" y="611" type="line" smooth="yes"/>
      <point x="433" y="611"/>
      <point x="486" y="558"/>
      <point x="486" y="479" type="curve" smooth="yes"/>
      <point x="486" y="403"/>
      <point x="442" y="346"/>
      <point x="379" y="346" type="curve" smooth="yes"/>
      <point x="194" y="346" type="line"/>
    </contour>
  </outline>
</glyph>
<glyph name="uni0425" format="1">
  <advance width="641"/>
  <unicode hex="0425"/>
  <outline>
    <contour>
      <point x="0" y="710" type="line"/>
      <point x="261" y="350" type="line"/>
      <point x="8" y="0" type="line"/>
      <point x="132" y="0" type="line"/>
      <point x="321" y="270" type="line"/>
      <point x="510" y="0" type="line"/>
      <point x="633" y="0" type="line"/>
      <point x="381" y="350" type="line"/>
      <point x="641" y="710" type="line"/>
      <point x="518" y="710" type="line"/>
      <point x="321" y="430" type="line"/>
      <point x="124" y="710" type="line"/>
    </contour>
  </outline>
</glyph>
<glyph name="uni0434" format="1">
  <advance width="610"/>
  <unicode hex="0434"/>
  <outline>
    <contour>
      <point x="17" y="-157" type="line"/>
      <point x="110" y="-157" type="line"/>
      <point x="110" y="0" type="line"/>
      <point x="482" y="0" type="line"/>
      <point x="482" y="-157" type="line"/>
      <point x="578" y="-157" type="line"/>
      <point x="578" y="95" type="line"/>
      <point x="512" y="95" type="line"/>
      <point x="512" y="523" type="line"/>
      <point x="167" y="523" type="line"/>
      <point x="150" y="369" type="line" smooth="yes"/>
      <point x="128" y="162"/>
      <point x="109" y="107"/>
      <point x="46" y="95" type="curve"/>
      <point x="17" y="95" type="line"/>
    </contour>
    <contour>
      <point x="185" y="95" type="line"/>
      <point x="217" y="138"/>
      <point x="236" y="210"/>
      <point x="253" y="337" type="curve" smooth="yes"/>
      <point x="266" y="433" type="line"/>
      <point x="404" y="433" type="line"/>
      <point x="404" y="95" type="line"/>
    </contour>
  </outline>
</glyph>
<glyph name="uni044E" format="1">
  <advance width="764"/>
  <unicode hex="044E"/>
  <outline>
    <contour>
      <point x="176" y="312" type="line"/>
      <point x="176" y="523" type="line"/>
      <point x="67" y="523" type="line"/>
      <point x="67" y="0" type="line"/>
      <point x="176" y="0" type="line"/>
      <point x="176" y="217" type="line"/>
      <point x="245" y="217" type="line"/>
      <point x="261" y="80"/>
      <point x="353" y="-10"/>
      <point x="483" y="-10" type="curve" smooth="yes"/>
      <point x="625" y="-10"/>
      <point x="730" y="92"/>
      <point x="730" y="260" type="curve" smooth="yes"/>
      <point x="730" y="418"/>
      <point x="632" y="534"/>
      <point x="485" y="534" type="curve" smooth="yes"/>
      <point x="360" y="534"/>
      <point x="265" y="447"/>
      <point x="247" y="312" type="curve"/>
    </contour>
    <contour>
      <point x="350" y="261" type="curve" smooth="yes"/>
      <point x="350" y="369"/>
      <point x="399" y="437"/>
      <point x="484" y="437" type="curve" smooth="yes"/>
      <point x="568" y="437"/>
      <point x="622" y="374"/>
      <point x="622" y="262" type="curve" smooth="yes"/>
      <point x="622" y="151"/>
      <point x="572" y="86"/>
      <point x="484" y="86" type="curve" smooth="yes"/>
      <point x="402" y="86"/>
      <point x="350" y="147"/>
    </contour>
  </outline>
</glyph>
<glyph name="ndotaccent" format="1">
  <advance width="597"/>
  <unicode hex="1E45"/>
  <outline>
    <contour>
      <point x="359" y="615" type="line"/>
      <point x="359" y="730" type="line"/>
      <point x="260" y="730" type="line"/>
      <point x="260" y="615" type="line"/>
    </contour>
    <contour>
      <point x="535" y="319" type="line"/>
      <point x="535" y="434"/>
      <point x="504" y="532"/>
      <point x="379" y="532" type="curve" smooth="yes"/>
      <point x="287" y="532"/>
      <point x="206" y="488"/>
      <point x="166" y="418" type="curve"/>
      <point x="166" y="523" type="line"/>
      <point x="66" y="523" type="line"/>
      <point x="66" y="0" type="line"/>
      <point x="176" y="0" type="line"/>
      <point x="176" y="311" type="line"/>
      <point x="199" y="382"/>
      <point x="269" y="434"/>
      <point x="332" y="434" type="curve" smooth="yes"/>
      <point x="393" y="434"/>
      <point x="425" y="391"/>
      <point x="425" y="293" type="curve" smooth="yes"/>
      <point x="425" y="0" type="line"/>
      <point x="535" y="0" type="line"/>
    </contour>
  </outline>
</glyph>
<glyph name="etilde" format="1">
  <advance width="595"/>
  <unicode hex="1EBD"/>
  <outline>
    <contour>
      <point x="303" y="-10" type="curve" smooth="yes"/>
      <point x="413" y="-10"/>
      <point x="502" y="46"/>
      <point x="538" y="124" type="curve"/>
      <point x="444" y="151" type="line"/>
      <point x="424" y="103"/>
      <point x="366" y="71"/>
      <point x="307" y="71" type="curve" smooth="yes"/>
      <point x="226" y="71"/>
      <point x="156" y="133"/>
      <point x="149" y="225" type="curve"/>
      <point x="568" y="225" type="line"/>
      <point x="569" y="234"/>
      <point x="571" y="249"/>
      <point x="571" y="265" type="curve"/>
      <point x="571" y="406"/>
      <point x="468" y="532"/>
      <point x="304" y="532" type="curve" smooth="yes"/>
      <point x="140" y="532"/>
      <point x="32" y="408"/>
      <point x="32" y="260" type="curve" smooth="yes"/>
      <point x="32" y="114"/>
      <point x="140" y="-10"/>
    </contour>
    <contour>
      <point x="146" y="301" type="line"/>
      <point x="153" y="390"/>
      <point x="220" y="451"/>
      <point x="303" y="451" type="curve" smooth="yes"/>
      <point x="387" y="451"/>
      <point x="453" y="390"/>
      <point x="462" y="301" type="curve"/>
    </contour>
    <contour>
      <point x="363" y="615" type="curve" smooth="yes"/>
      <point x="452" y="615"/>
      <point x="477" y="713"/>
      <point x="477" y="730" type="curve"/>
      <point x="414" y="730" type="line"/>
      <point x="414" y="726"/>
      <point x="409" y="681"/>
      <point x="360" y="681" type="curve" smooth="yes"/>
      <point x="311" y="681"/>
      <point x="288" y="725"/>
      <point x="229" y="725" type="curve" smooth="yes"/>
      <point x="146" y="725"/>
      <point x="122" y="631"/>
      <point x="122" y="610" type="curve"/>
      <point x="184" y="610" type="line"/>
      <point x="184" y="614"/>
      <point x="188" y="658"/>
      <point x="233" y="658" type="curve" smooth="yes"/>
      <point x="276" y="658"/>
      <point x="302" y="615"/>
    </contour>
  </outline>
</glyph>
<glyph name="Udotbelow" format="1">
  <advance width="752"/>
  <unicode hex="1EE4"/>
  <outline>
    <contour>
      <point x="376" y="96" type="curve" smooth="yes"/>
      <point x="229" y="96"/>
      <point x="182" y="220"/>
      <point x="182" y="350" type="curve" smooth="yes"/>
      <point x="182" y="710" type="line"/>
      <point x="70" y="710" type="line"/>
      <point x="70" y="350" type="line" smooth="yes"/>
      <point x="70" y="166"/>
      <point x="150" y="-5"/>
      <point x="376" y="-5" type="curve" smooth="yes"/>
      <point x="595" y="-5"/>
      <point x="683" y="156"/>
      <point x="683" y="350" type="curve" smooth="yes"/>
      <point x="683" y="710" type="line"/>
      <point x="570" y="710" type="line"/>
      <point x="570" y="350" type="line" smooth="yes"/>
      <point x="570" y="223"/>
      <point x="525" y="96"/>
    </contour>
    <contour>
      <point x="426" y="-189" type="line"/>
      <point x="426" y="-73" type="line"/>
      <point x="327" y="-73" type="line"/>
      <point x="327" y="-189" type="line"/>
    </contour>
  </outline>
</glyph>
<glyph name="uni2113" format="1">
  <advance width="329"/>
  <unicode hex="2113"/>
  <outline>
    <contour>
      <point x="213" y="82" type="curve" smooth="yes"/>
      <point x="174" y="82"/>
      <point x="150" y="105"/>
      <point x="150" y="144" type="curve" smooth="yes"/>
      <point x="150" y="232" type="line"/>
      <point x="244" y="322"/>
      <point x="333" y="503"/>
      <point x="333" y="610" type="curve" smooth="yes"/>
      <point x="333" y="687"/>
      <point x="280" y="740"/>
      <point x="203" y="740" type="curve" smooth="yes"/>
      <point x="124" y="740"/>
      <point x="63" y="684"/>
      <point x="63" y="610" type="curve" smooth="yes"/>
      <point x="63" y="103" type="line" smooth="yes"/>
      <point x="63" y="34"/>
      <point x="106" y="-7"/>
      <point x="178" y="-7" type="curve" smooth="yes"/>
      <point x="209" y="-7"/>
      <point x="254" y="2"/>
      <point x="283" y="14" type="curve"/>
      <point x="267" y="94" type="line"/>
      <point x="249" y="87"/>
      <point x="228" y="82"/>
    </contour>
    <contour>
      <point x="253" y="595" type="curve" smooth="yes"/>
      <point x="253" y="527"/>
      <point x="204" y="411"/>
      <point x="150" y="339" type="curve"/>
      <point x="150" y="601" type="line" smooth="yes"/>
      <point x="150" y="637"/>
      <point x="172" y="662"/>
      <point x="204" y="662" type="curve" smooth="yes"/>
      <point x="235" y="662"/>
      <point x="253" y="638"/>
    </contour>
  </outline>
</glyph>
<glyph name="onethird" format="1">
  <advance width="922"/>
  <unicode hex="2153"/>
  <outline>
    <contour>
      <point x="174" y="-6" type="line"/>
      <point x="444" y="342" type="line"/>
      <point x="720" y="671" type="line"/>
      <point x="668" y="716" type="line"/>
      <point x="404" y="373" type="line"/>
      <point x="123" y="40" type="line"/>
    </contour>
    <contour>
      <point x="207" y="379" type="line"/>
      <point x="207" y="731" type="line"/>
      <point x="140" y="731" type="line"/>
      <point x="139" y="728"/>
      <point x="87" y="674"/>
      <point x="45" y="674" type="curve"/>
      <point x="45" y="608" type="line"/>
      <point x="77" y="608"/>
      <point x="126" y="640"/>
      <point x="140" y="658" type="curve"/>
      <point x="140" y="379" type="line"/>
      <point x="61" y="379" type="line"/>
      <point x="61" y="313" type="line"/>
      <point x="280" y="313" type="line"/>
      <point x="280" y="379" type="line"/>
    </contour>
    <contour>
      <point x="713" y="-5" type="curve" smooth="yes"/>
      <point x="803" y="-5"/>
      <point x="887" y="33"/>
      <point x="887" y="110" type="curve" smooth="yes"/>
      <point x="887" y="163"/>
      <point x="847" y="207"/>
      <point x="783" y="216" type="curve"/>
      <point x="842" y="228"/>
      <point x="876" y="258"/>
      <point x="876" y="306" type="curve" smooth="yes"/>
      <point x="876" y="370"/>
      <point x="806" y="419"/>
      <point x="712" y="419" type="curve" smooth="yes"/>
      <point x="647" y="419"/>
      <point x="582" y="396"/>
      <point x="554" y="358" type="curve"/>
      <point x="598" y="305" type="line"/>
      <point x="620" y="336"/>
      <point x="658" y="357"/>
      <point x="712" y="357" type="curve" smooth="yes"/>
      <point x="758" y="357"/>
      <point x="805" y="337"/>
      <point x="805" y="301" type="curve" smooth="yes"/>
      <point x="805" y="262"/>
      <point x="752" y="244"/>
      <point x="670" y="244" type="curve" smooth="yes"/>
      <point x="647" y="244" type="line"/>
      <point x="647" y="183" type="line"/>
      <point x="670" y="183" type="line" smooth="yes"/>
      <point x="762" y="183"/>
      <point x="819" y="161"/>
      <point x="819" y="120" type="curve" smooth="yes"/>
      <point x="819" y="83"/>
      <point x="771" y="62"/>
      <point x="712" y="62" type="curve" smooth="yes"/>
      <point x="643" y="62"/>
      <point x="598" y="98"/>
      <point x="589" y="125" type="curve"/>
      <point x="552" y="78" type="line"/>
      <point x="568" y="25"/>
      <point x="630" y="-5"/>
    </contour>
  </outline>
</glyph>
<glyph name="threeeighths" format="1">
  <advance width="926"/>
  <unicode hex="215C"/>
  <outline>
    <contour>
      <point x="201" y="306" type="curve" smooth="yes"/>
      <point x="291" y="306"/>
      <point x="375" y="345"/>
      <point x="375" y="423" type="curve" smooth="yes"/>
      <point x="375" y="476"/>
      <point x="335" y="520"/>
      <point x="271" y="529" type="curve"/>
      <point x="330" y="540"/>
      <point x="364" y="571"/>
      <point x="364" y="617" type="curve" smooth="yes"/>
      <point x="364" y="682"/>
      <point x="294" y="731"/>
      <point x="200" y="731" type="curve" smooth="yes"/>
      <point x="135" y="731"/>
      <point x="70" y="709"/>
      <point x="42" y="670" type="curve"/>
      <point x="86" y="617" type="line"/>
      <point x="108" y="648"/>
      <point x="146" y="669"/>
      <point x="200" y="669" type="curve" smooth="yes"/>
      <point x="246" y="669"/>
      <point x="293" y="650"/>
      <point x="293" y="613" type="curve" smooth="yes"/>
      <point x="293" y="574"/>
      <point x="240" y="556"/>
      <point x="158" y="556" type="curve" smooth="yes"/>
      <point x="135" y="556" type="line"/>
      <point x="135" y="495" type="line"/>
      <point x="158" y="495" type="line" smooth="yes"/>
      <point x="250" y="495"/>
      <point x="307" y="474"/>
      <point x="307" y="433" type="curve" smooth="yes"/>
      <point x="307" y="396"/>
      <point x="259" y="374"/>
      <point x="200" y="374" type="curve" smooth="yes"/>
      <point x="131" y="374"/>
      <point x="86" y="410"/>
      <point x="77" y="437" type="curve"/>
      <point x="40" y="389" type="line"/>
      <point x="56" y="337"/>
      <point x="118" y="306"/>
    </contour>
    <contour>
      <point x="215" y="-6" type="line"/>
      <point x="485" y="342" type="line"/>
      <point x="761" y="671" type="line"/>
      <point x="709" y="716" type="line"/>
      <point x="445" y="373" type="line"/>
      <point x="164" y="40" type="line"/>
    </contour>
    <contour>
      <point x="891" y="119" type="curve" smooth="yes"/>
      <point x="891" y="169"/>
      <point x="854" y="202"/>
      <point x="803" y="222" type="curve"/>
      <point x="844" y="236"/>
      <point x="875" y="265"/>
      <point x="875" y="304" type="curve" smooth="yes"/>
      <point x="875" y="371"/>
      <point x="794" y="413"/>
      <point x="720" y="413" type="curve" smooth="yes"/>
      <point x="645" y="413"/>
      <point x="564" y="370"/>
      <point x="564" y="303" type="curve" smooth="yes"/>
      <point x="564" y="262"/>
      <point x="598" y="236"/>
      <point x="636" y="222" type="curve"/>
      <point x="590" y="204"/>
      <point x="548" y="173"/>
      <point x="548" y="121" type="curve" smooth="yes"/>
      <point x="548" y="51"/>
      <point x="622" y="-5"/>
      <point x="719" y="-5" type="curve" smooth="yes"/>
      <point x="812" y="-5"/>
      <point x="891" y="46"/>
    </contour>
    <contour>
      <point x="824" y="126" type="curve" smooth="yes"/>
      <point x="824" y="87"/>
      <point x="772" y="61"/>
      <point x="721" y="61" type="curve" smooth="yes"/>
      <point x="671" y="61"/>
      <point x="616" y="85"/>
      <point x="616" y="125" type="curve" smooth="yes"/>
      <point x="616" y="165"/>
      <point x="666" y="191"/>
      <point x="720" y="191" type="curve" smooth="yes"/>
      <point x="770" y="191"/>
      <point x="824" y="167"/>
    </contour>
    <contour>
      <point x="631" y="297" type="curve" smooth="yes"/>
      <point x="631" y="329"/>
      <point x="673" y="349"/>
      <point x="720" y="349" type="curve" smooth="yes"/>
      <point x="765" y="349"/>
      <point x="809" y="329"/>
      <point x="809" y="298" type="curve" smooth="yes"/>
      <point x="809" y="266"/>
      <point x="761" y="246"/>
      <point x="720" y="246" type="curve" smooth="yes"/>
      <point x="678" y="246"/>
      <point x="631" y="265"/>
    </contour>
  </outline>
</glyph>
<glyph name="lessequal" format="1">
  <advance width="460"/>
  <unicode hex="2264"/>
  <outline>
    <contour>
      <point x="396" y="40" type="line"/>
      <point x="396" y="129" type="line"/>
      <point x="54" y="129" type="line"/>
      <point x="54" y="40" type="line"/>
    </contour>
    <contour>
      <point x="54" y="344" type="line"/>
      <point x="393" y="186" type="line"/>
      <point x="393" y="294" type="line"/>
      <point x="192" y="381" type="line"/>
      <point x="393" y="471" type="line"/>
      <point x="393" y="576" type="line"/>
      <point x="54" y="412" type="line"/>
    </contour>
  </outline>
</glyph>
<glyph name="f_f_i" format="1">
  <advance width="796"/>
  <unicode hex="FB03"/>
  <outline>
    <contour>
      <point x="96" y="0" type="line"/>
      <point x="206" y="0" type="line"/>
      <point x="206" y="425" type="line"/>
      <point x="347" y="425" type="line"/>
      <point x="347" y="0" type="line"/>
      <point x="457" y="0" type="line"/>
      <point x="457" y="425" type="line"/>
      <point x="620" y="425" type="line"/>
      <point x="620" y="0" type="line"/>
      <point x="731" y="0" type="line"/>
      <point x="731" y="510" type="line"/>
      <point x="457" y="510" type="line"/>
      <point x="457" y="534" type="line" smooth="yes"/>
      <point x="457" y="590"/>
      <point x="486" y="646"/>
      <point x="559" y="646" type="curve" smooth="yes"/>
      <point x="604" y="646"/>
      <point x="653" y="625"/>
      <point x="682" y="600" type="curve"/>
      <point x="728" y="682" type="line"/>
      <point x="680" y="712"/>
      <point x="618" y="740"/>
      <point x="548" y="740" type="curve" smooth="yes"/>
      <point x="477" y="740"/>
      <point x="424" y="714"/>
      <point x="390" y="675" type="curve"/>
      <point x="355" y="691"/>
      <point x="313" y="703"/>
      <point x="267" y="703" type="curve" smooth="yes"/>
      <point x="157" y="703"/>
      <point x="96" y="613"/>
      <point x="96" y="518" type="curve" smooth="yes"/>
      <point x="96" y="510" type="line"/>
      <point x="26" y="510" type="line"/>
      <point x="26" y="425" type="line"/>
      <point x="96" y="425" type="line"/>
    </contour>
    <contour>
      <point x="206" y="510" type="line"/>
      <point x="206" y="520" type="line" smooth="yes"/>
      <point x="206" y="566"/>
      <point x="229" y="609"/>
      <point x="288" y="609" type="curve" smooth="yes"/>
      <point x="309" y="609"/>
      <point x="339" y="605"/>
      <point x="359" y="593" type="curve"/>
      <point x="350" y="576"/>
      <point x="347" y="529"/>
      <point x="347" y="510" type="curve"/>
    </contour>
  </outline>
</glyph>
<glyph name="K.sc" format="1">
  <advance width="583"/>
  <outline>
    <contour>
      <point x="314" y="0" type="move" name="bottom"/>
    </contour>
    <contour>
      <point x="173" y="0" type="line"/>
      <point x="173" y="168" type="line"/>
      <point x="267" y="252" type="line"/>
      <point x="475" y="0" type="line"/>
      <point x="581" y="0" type="line"/>
      <point x="327" y="309" type="line"/>
      <point x="567" y="555" type="line"/>
      <point x="461" y="555" type="line"/>
      <point x="173" y="276" type="line"/>
      <point x="173" y="555" type="line"/>
      <point x="74" y="555" type="line"/>
      <point x="74" y="0" type="line"/>
    </contour>
  </outline>
</glyph>
<glyph name="U.sc" format="1">
  <advance width="653"/>
  <outline>
    <contour>
      <point x="379" y="707" type="move" name="top"/>
    </contour>
    <contour>
      <point x="379" y="0" type="move" name="bottom"/>
    </contour>
    <contour>
      <point x="326" y="85" type="curve" smooth="yes"/>
      <point x="205" y="85"/>
      <point x="165" y="176"/>
      <point x="165" y="273" type="curve" smooth="yes"/>
      <point x="165" y="555" type="line"/>
      <point x="66" y="555" type="line"/>
      <point x="66" y="273" type="line" smooth="yes"/>
      <point x="66" y="129"/>
      <point x="135" y="-4"/>
      <point x="327" y="-4" type="curve" smooth="yes"/>
      <point x="513" y="-4"/>
      <point x="588" y="121"/>
      <point x="588" y="273" type="curve" smooth="yes"/>
      <point x="588" y="555" type="line"/>
      <point x="488" y="555" type="line"/>
      <point x="488" y="273" type="line" smooth="yes"/>
      <point x="488" y="178"/>
      <point x="451" y="85"/>
    </contour>
  </outline>
</glyph>
<glyph name="seven.denominator" format="1">
  <advance width="376"/>
  <outline>
    <contour>
      <point x="54" y="0" type="line"/>
      <point x="129" y="0" type="line"/>
      <point x="373" y="414" type="line"/>
      <point x="25" y="414" type="line"/>
      <point x="25" y="347" type="line"/>
      <point x="268" y="347" type="line"/>
    </contour>
  </outline>
</glyph>
<glyph name="zero.denominator" format="1">
  <advance width="476"/>
  <outline>
    <contour>
      <point x="239" y="-5" type="curve" smooth="yes"/>
      <point x="365" y="-5"/>
      <point x="443" y="103"/>
      <point x="443" y="204" type="curve" smooth="yes"/>
      <point x="443" y="294"/>
      <point x="373" y="413"/>
      <point x="239" y="413" type="curve" smooth="yes"/>
      <point x="112" y="413"/>
      <point x="34" y="303"/>
      <point x="34" y="204" type="curve" smooth="yes"/>
      <point x="34" y="111"/>
      <point x="103" y="-5"/>
    </contour>
    <contour>
      <point x="103" y="204" type="curve" smooth="yes"/>
      <point x="103" y="264"/>
      <point x="145" y="347"/>
      <point x="239" y="347" type="curve" smooth="yes"/>
      <point x="326" y="347"/>
      <point x="375" y="271"/>
      <point x="375" y="204" type="curve" smooth="yes"/>
      <point x="375" y="144"/>
      <point x="332" y="61"/>
      <point x="239" y="61" type="curve" smooth="yes"/>
      <point x="149" y="61"/>
      <point x="103" y="137"/>
    </contour>
  </outline>
</glyph>
<glyph name="zero.numerator" format="1">
  <advance width="476"/>
  <outline>
    <contour>
      <point x="239" y="311" type="curve" smooth="yes"/>
      <point x="365" y="311"/>
      <point x="443" y="420"/>
      <point x="443" y="520" type="curve" smooth="yes"/>
      <point x="443" y="611"/>
      <point x="373" y="730"/>
      <point x="239" y="730" type="curve" smooth="yes"/>
      <point x="112" y="730"/>
      <point x="34" y="620"/>
      <point x="34" y="520" type="curve" smooth="yes"/>
      <point x="34" y="428"/>
      <point x="103" y="311"/>
    </contour>
    <contour>
      <point x="103" y="520" type="curve" smooth="yes"/>
      <point x="103" y="581"/>
      <point x="145" y="663"/>
      <point x="239" y="663" type="curve" smooth="yes"/>
      <point x="326" y="663"/>
      <point x="375" y="587"/>
      <point x="375" y="520" type="curve" smooth="yes"/>
      <point x="375" y="461"/>
      <point x="332" y="378"/>
      <point x="239" y="378" type="curve" smooth="yes"/>
      <point x="149" y="378"/>
      <point x="103" y="454"/>
    </contour>
  </outline>
</glyph>
